# xmcd
#
# Track frame offsets:
#	150
#	22221
#	43912
#	59338
#	74551
#	83900
#	113706
#	128843
#	146923
#	158014
#	182791
#	200579
#	217654
#
# Disc length: 3075 seconds
#
# Revision: 2
# Processed by: cddbd v1.5.2PL0 Copyright (c) Steve Scherf et al.
# Submitted via: EZCDAudioConverter 1.3.4.1
#
DISCID=c40c010d
DTITLE=Rodriguez - Coming From Reality
DYEAR=1970
DGENRE=
TTITLE0=Climb Up On My Music
TTITLE1=A Most Disgusting Song
TTITLE2=I Think Of You
TTITLE3=Heikki's Suburbia Bus Tour
TTITLE4=Silver Words?
TTITLE5=Sandrevan Lullaby - Lifestyles
TTITLE6=To Whom It May Concern
TTITLE7=It Started Out So Nice
TTITLE8=Halfway Up The Stairs
TTITLE9=Cause
TTITLE10=Can't Get Away
TTITLE11=Street Boy
TTITLE12=I'll Slip Away
EXTD=
EXTT0=
EXTT1=
EXTT2=
EXTT3=
EXTT4=
EXTT5=
EXTT6=
EXTT7=
EXTT8=
EXTT9=
EXTT10=
EXTT11=
EXTT12=
PLAYORDER=
